<?xml version="1.0" encoding="UTF-8" standalone="no"?>
<!-- Generator: Adobe Illustrator 16.0.4, SVG Export Plug-In . SVG Version: 6.00 Build 0)  -->

<svg
   xmlns:dc="http://purl.org/dc/elements/1.1/"
   xmlns:cc="http://creativecommons.org/ns#"
   xmlns:rdf="http://www.w3.org/1999/02/22-rdf-syntax-ns#"
   xmlns:svg="http://www.w3.org/2000/svg"
   xmlns="http://www.w3.org/2000/svg"
   xmlns:sodipodi="http://sodipodi.sourceforge.net/DTD/sodipodi-0.dtd"
   xmlns:inkscape="http://www.inkscape.org/namespaces/inkscape"
   version="1.1"
   id="Ebene_1"
   x="0px"
   y="0px"
   width="226.44901"
   height="57.758999"
   viewBox="0 869 226.44901 57.758999"
   enable-background="new 0 869 297.641 99.21"
   xml:space="preserve"
   sodipodi:docname="CFG_Karlsruhe_white.svg"
   inkscape:version="0.92.4 (unknown)"><metadata
   id="metadata65"><rdf:RDF><cc:Work
       rdf:about=""><dc:format>image/svg+xml</dc:format><dc:type
         rdf:resource="http://purl.org/dc/dcmitype/StillImage" /><dc:title /></cc:Work></rdf:RDF></metadata><defs
   id="defs63" /><sodipodi:namedview
   pagecolor="#ffffff"
   bordercolor="#666666"
   borderopacity="1"
   objecttolerance="10"
   gridtolerance="10"
   guidetolerance="10"
   inkscape:pageopacity="0"
   inkscape:pageshadow="2"
   inkscape:window-width="1920"
   inkscape:window-height="1024"
   id="namedview61"
   showgrid="false"
   fit-margin-top="0"
   fit-margin-left="0"
   fit-margin-right="0"
   fit-margin-bottom="0"
   inkscape:zoom="3.6519655"
   inkscape:cx="136.98858"
   inkscape:cy="17.538709"
   inkscape:window-x="0"
   inkscape:window-y="0"
   inkscape:window-maximized="1"
   inkscape:current-layer="text33" />



<polygon
   points="66.909,941.337 70.595,941.337 71.625,941.337 72.504,941.337 72.504,896.572 66.909,896.572 66.909,897.267 "
   id="polygon8"
   style="fill:#d57a75"
   transform="translate(-36.832,-22.673)" />
<g
   id="g12"
   transform="translate(-36.832,-22.673)">
	<path
   d="m 89.102,945.535 c 0.384,0 0.89,-0.348 0.89,-0.729 v -52.43 c 0,-0.383 -0.506,-0.699 -0.89,-0.699 H 71.625 c -0.384,0 -0.52,0.158 -0.52,0.35 v 1.049 3.494 c 0,0.385 0.136,0.703 0.52,0.703 h 11.884 c 0.385,0 0.888,0.311 0.888,0.695 v 41.248 c 0,0.383 -0.503,0.725 -0.888,0.725 H 71.625 c -0.384,0 -0.52,0.131 -0.52,0.324 v 1.047 3.496 c 0,0.383 0.136,0.73 0.52,0.73 h 17.478 z"
   id="path10"
   inkscape:connector-curvature="0"
   style="fill:#ce5a4e" />
</g>
<polygon
   points="96.986,941.337 101.684,941.337 102.582,941.337 102.582,896.572 96.986,896.572 96.986,897.267 "
   id="polygon14"
   style="fill:#8bbd97"
   transform="translate(-36.832,-22.673)" />
<g
   id="g36"
   transform="translate(-36.832,-22.673)">
	<path
   d="m 101.882,945.503 v -5.592 c 7.694,0 13.062,-9.566 13.062,-21.322 0,-11.758 -5.368,-21.322 -13.062,-21.322 v -5.594 c 10.492,0 18.656,12.074 18.656,26.916 0,14.84 -8.164,26.914 -18.656,26.914"
   id="path16"
   inkscape:connector-curvature="0"
   style="fill:#4ea15a" />
	<path
   d="m 43.827,928.306 v 7.713 2.48 c 0,4.186 2.678,7.035 6.908,7.035 h 1.189 3.426 4.04 c 0.192,0 0.523,-0.348 0.523,-0.729 v -4.197 c 0,-0.383 -0.489,-0.672 -0.873,-0.672 h -4.018 -2.05 -1.271 c -1.811,0 -2.282,-0.77 -2.282,-2.838 v -1.229 -6.729 -4.104 c 0,-4.219 -1.715,-5.771 -3.803,-6.537 2.088,-0.762 3.803,-2.314 3.803,-6.529 v -2.914 -7.395 -1.754 c 0,-2.033 0.405,-2.641 2.282,-2.641 h 1.58 2.004 4.103 c 0.192,0 0.523,-0.316 0.523,-0.701 v -4.195 c 0,-0.383 -0.489,-0.697 -0.873,-0.697 h -3.36 -3.17 -1.773 c -4.23,0 -6.908,2.74 -6.908,6.834 v 2.195 9.146 c 0,0 -0.14,2.1 -0.24,2.814 -0.266,1.891 -2.582,3.51 -4.018,3.49 h -2.198 c -0.386,0 -0.539,0.301 -0.539,0.686 v 4.195 c 0,0.383 0.153,0.715 0.539,0.715 h 2.008 c 1.832,-0.025 4.146,1.518 4.321,3.818 0.053,0.674 0.127,2.74 0.127,2.74"
   id="path18"
   inkscape:connector-curvature="0"
   style="fill:#33a1df" />
	<path
   d="M 71.625,891.675 H 69.644 67.43 c -0.385,0 -0.521,0.316 -0.521,0.699 v 1.291 2.902 0.703 h 0.521 4.194 0.88 v -0.703 -4.193 -0.699 z"
   id="path20"
   inkscape:connector-curvature="0"
   style="fill:#bd3c38" />
	<path
   d="m 66.909,940.611 v 1.98 2.213 c 0,0.385 0.137,0.73 0.521,0.73 h 1.292 2.902 0.879 v -0.73 -4.193 -0.672 H 71.624 67.43 66.909 Z"
   id="path22"
   inkscape:connector-curvature="0"
   style="fill:#bd3c38" />
	<path
   d="m 101.684,891.675 h -1.98 -2.214 c -0.385,0 -0.505,0.316 -0.505,0.699 v 1.291 2.902 0.703 h 0.505 4.193 0.897 v -0.703 -4.193 -0.699 z"
   id="path24"
   inkscape:connector-curvature="0"
   style="fill:#27954e" />
	<path
   d="m 96.986,940.611 v 1.98 2.213 c 0,0.385 0.12,0.73 0.505,0.73 h 1.29 2.903 0.897 v -0.73 -4.193 -0.672 h -0.897 -4.194 -0.505 v 0.672 z"
   id="path26"
   inkscape:connector-curvature="0"
   style="fill:#27954e" />
	<path
   d="m 131.959,928.306 v 7.713 2.48 c 0,4.186 2.627,7.035 6.858,7.035 h 1.189 3.426 4.04 c 0.192,0 0.572,-0.348 0.572,-0.729 v -4.197 c 0,-0.383 -0.538,-0.672 -0.922,-0.672 h -4.019 -2.05 -1.269 c -1.811,0 -2.232,-0.77 -2.232,-2.838 v -1.229 -6.729 -4.104 c 0,-1.357 -0.398,-2.586 -0.708,-3.287 h -9.388 c 2.579,0.701 3.682,1.623 4.207,3.869 0.266,1.122 0.296,2.688 0.296,2.688"
   id="path28"
   inkscape:connector-curvature="0"
   style="fill:#7bbbb7" />
	<path
   d="m 131.562,912.666 c -0.542,1.832 -1.751,2.793 -3.91,3.492 h 8.808 c 0.547,-1.398 1.097,-2.332 1.097,-4.184 v -2.914 -7.393 -1.756 c 0,-2.033 0.354,-2.641 2.232,-2.641 h 1.579 2.003 4.104 c 0.192,0 0.572,-0.316 0.572,-0.701 v -4.195 c 0,-0.383 -0.538,-0.699 -0.922,-0.699 h -3.359 -3.172 -1.774 c -4.231,0 -6.858,2.742 -6.858,6.836 v 2.195 9.146 c -0.003,10e-4 -0.129,1.899 -0.4,2.814"
   id="path30"
   inkscape:connector-curvature="0"
   style="fill:#7bbbb7" />
	<path
   d="m 132.924,919 c 1.416,0.52 2.97,1.354 3.924,2.752 h 10.275 c 0.385,0 0.923,-0.332 0.923,-0.715 v -4.195 c 0,-0.385 -0.538,-0.686 -0.923,-0.686 h -10.664 c -0.7,1.4 -2.363,2.414 -3.535,2.844"
   id="path32"
   inkscape:connector-curvature="0"
   style="fill:#9ac9c6" />
	<path
   d="m 125.453,916.158 c -0.386,0 -0.489,0.301 -0.489,0.686 v 4.195 c 0,0.385 0.104,0.717 0.489,0.717 h 2.007 9.388 c -0.631,-1.4 -2.196,-2.357 -3.313,-2.793 1.172,-0.43 2.226,-1.404 2.926,-2.803 h -8.809 z"
   id="path34"
   inkscape:connector-curvature="0"
   style="fill:#42a5a5" />
</g>


<g
   aria-label="for"
   style="font-style:normal;font-weight:normal;font-size:40px;line-height:1.25;font-family:sans-serif;letter-spacing:0px;word-spacing:0px;fill:#000000;fill-opacity:1;stroke:none"
   id="text33"><path
     d="m 132.69108,873.74178 v 2.14193 h -1.80469 q -0.69271,0 -0.96615,0.25521 -0.27343,0.24609 -0.27343,0.86588 v 0.71094 h 2.78906 v 2.33333 h -2.78906 v 7.875 h -3.26302 v -7.875 h -1.6224 v -2.33333 h 1.6224 v -0.71094 q 0,-1.66797 0.92968,-2.46094 0.92969,-0.80208 2.88021,-0.80208 z"
     style="font-style:normal;font-variant:normal;font-weight:bold;font-stretch:normal;font-size:18.66666603px;font-family:sans-serif;-inkscape-font-specification:'sans-serif, Bold';font-variant-ligatures:normal;font-variant-caps:normal;font-variant-numeric:normal;font-feature-settings:normal;text-align:start;writing-mode:lr-tb;text-anchor:start;fill:#ffffff;fill-opacity:1"
     id="path35"
     inkscape:connector-curvature="0" /><path
     d="m 138.96191,879.80298 q -1.08463,0 -1.65885,0.78385 -0.56511,0.77474 -0.56511,2.24219 0,1.46745 0.56511,2.2513 0.57422,0.77474 1.65885,0.77474 1.06641,0 1.63151,-0.77474 0.56511,-0.78385 0.56511,-2.2513 0,-1.46745 -0.56511,-2.24219 -0.5651,-0.78385 -1.63151,-0.78385 z m 0,-2.33333 q 2.63412,0 4.11068,1.42187 1.48567,1.42188 1.48567,3.9375 0,2.51563 -1.48567,3.9375 -1.47656,1.42188 -4.11068,1.42188 -2.64323,0 -4.13802,-1.42188 -1.48568,-1.42187 -1.48568,-3.9375 0,-2.51562 1.48568,-3.9375 1.49479,-1.42187 4.13802,-1.42187 z"
     style="font-style:normal;font-variant:normal;font-weight:bold;font-stretch:normal;font-size:18.66666603px;font-family:sans-serif;-inkscape-font-specification:'sans-serif, Bold';font-variant-ligatures:normal;font-variant-caps:normal;font-variant-numeric:normal;font-feature-settings:normal;text-align:start;writing-mode:lr-tb;text-anchor:start;fill:#ffffff;fill-opacity:1"
     id="path37"
     inkscape:connector-curvature="0" /><path
     d="m 154.5205,880.49569 q -0.42838,-0.20052 -0.85677,-0.29167 -0.41927,-0.10026 -0.84765,-0.10026 -1.25782,0 -1.94141,0.8112 -0.67448,0.80208 -0.67448,2.30599 v 4.70312 h -3.26302 v -10.20833 h 3.26302 v 1.67708 q 0.62891,-1.0026 1.44011,-1.45833 0.82031,-0.46484 1.95963,-0.46484 0.16406,0 0.35547,0.0182 0.19141,0.009 0.55599,0.0547 z"
     style="font-style:normal;font-variant:normal;font-weight:bold;font-stretch:normal;font-size:18.66666603px;font-family:sans-serif;-inkscape-font-specification:'sans-serif, Bold';font-variant-ligatures:normal;font-variant-caps:normal;font-variant-numeric:normal;font-feature-settings:normal;text-align:start;writing-mode:lr-tb;text-anchor:start;fill:#ffffff;fill-opacity:1"
     id="path39"
     inkscape:connector-curvature="0" /></g><g
   aria-label="Karlsruhe"
   transform="translate(-0.50098321,998.3962)"
   style="font-style:normal;font-weight:normal;font-size:40px;line-height:1.25;font-family:sans-serif;letter-spacing:0px;word-spacing:0px;fill:#ffffff;fill-opacity:1;stroke:none"
   id="flowRoot852-9"><path
     d="m 125.91471,-93.16276 h 3.50912 v 4.967448 l 5.05859,-4.967448 h 4.07422 l -6.55339,6.44401 7.22787,7.164063 h -4.39323 l -5.41406,-5.359375 v 5.359375 h -3.50912 z"
     style="font-style:normal;font-variant:normal;font-weight:bold;font-stretch:normal;font-size:18.66666603px;font-family:sans-serif;-inkscape-font-specification:'sans-serif, Bold';font-variant-ligatures:normal;font-variant-caps:normal;font-variant-numeric:normal;font-feature-settings:normal;text-align:start;writing-mode:lr-tb;text-anchor:start;fill:#ffffff;fill-opacity:1"
     id="path42"
     inkscape:connector-curvature="0" /><path
     d="m 144.81836,-84.148437 q -1.02083,0 -1.54037,0.346354 -0.51041,0.346354 -0.51041,1.020833 0,0.619792 0.41015,0.97526 0.41927,0.346355 1.15756,0.346355 0.92057,0 1.54948,-0.65625 0.6289,-0.665365 0.6289,-1.658854 v -0.373698 z m 4.98568,-1.230469 v 5.824219 h -3.29037 v -1.513021 q -0.65625,0.929687 -1.47656,1.358073 -0.82031,0.41927 -1.99609,0.41927 -1.58594,0 -2.57943,-0.920572 -0.98438,-0.929688 -0.98438,-2.40625 0,-1.795573 1.23047,-2.634115 1.23959,-0.838542 3.88281,-0.838542 h 1.92318 v -0.255208 q 0,-0.774739 -0.61068,-1.130208 -0.61067,-0.364583 -1.90494,-0.364583 -1.04818,0 -1.95052,0.209635 -0.90235,0.209635 -1.67709,0.628906 v -2.488281 q 1.04818,-0.255208 2.10547,-0.382812 1.05729,-0.136719 2.11458,-0.136719 2.76172,0 3.98308,1.09375 1.23047,1.084635 1.23047,3.536458 z"
     style="font-style:normal;font-variant:normal;font-weight:bold;font-stretch:normal;font-size:18.66666603px;font-family:sans-serif;-inkscape-font-specification:'sans-serif, Bold';font-variant-ligatures:normal;font-variant-caps:normal;font-variant-numeric:normal;font-feature-settings:normal;text-align:start;writing-mode:lr-tb;text-anchor:start;fill:#ffffff;fill-opacity:1"
     id="path44"
     inkscape:connector-curvature="0" /><path
     d="m 160.44075,-86.983073 q -0.42838,-0.20052 -0.85677,-0.291666 -0.41927,-0.100261 -0.84765,-0.100261 -1.25782,0 -1.94141,0.811198 -0.67448,0.802083 -0.67448,2.30599 v 4.703125 h -3.26302 V -89.76302 h 3.26302 v 1.677083 q 0.62891,-1.002604 1.44011,-1.458333 0.82031,-0.464844 1.95963,-0.464844 0.16406,0 0.35547,0.01823 0.19141,0.0091 0.55599,0.05469 z"
     style="font-style:normal;font-variant:normal;font-weight:bold;font-stretch:normal;font-size:18.66666603px;font-family:sans-serif;-inkscape-font-specification:'sans-serif, Bold';font-variant-ligatures:normal;font-variant-caps:normal;font-variant-numeric:normal;font-feature-settings:normal;text-align:start;writing-mode:lr-tb;text-anchor:start;fill:#ffffff;fill-opacity:1"
     id="path46"
     inkscape:connector-curvature="0" /><path
     d="m 162.08138,-93.736979 h 3.26302 v 14.182292 h -3.26302 z"
     style="font-style:normal;font-variant:normal;font-weight:bold;font-stretch:normal;font-size:18.66666603px;font-family:sans-serif;-inkscape-font-specification:'sans-serif, Bold';font-variant-ligatures:normal;font-variant-caps:normal;font-variant-numeric:normal;font-feature-settings:normal;text-align:start;writing-mode:lr-tb;text-anchor:start;fill:#ffffff;fill-opacity:1"
     id="path48"
     inkscape:connector-curvature="0" /><path
     d="m 176.4733,-89.44401 v 2.479167 q -1.04817,-0.4375 -2.02343,-0.65625 -0.97526,-0.21875 -1.84115,-0.21875 -0.92969,0 -1.38542,0.236979 -0.44661,0.227864 -0.44661,0.710937 0,0.391927 0.33724,0.601563 0.34635,0.209635 1.23047,0.309895 l 0.57422,0.08203 q 2.50651,0.31901 3.37239,1.048177 0.86589,0.729166 0.86589,2.28776 0,1.63151 -1.20313,2.451823 -1.20312,0.820312 -3.59114,0.820312 -1.01172,0 -2.09636,-0.164062 -1.07552,-0.154948 -2.21484,-0.473958 v -2.479167 q 0.97526,0.473958 1.99609,0.710937 1.02995,0.23698 2.08724,0.23698 0.95703,0 1.44011,-0.264323 0.48307,-0.264323 0.48307,-0.783854 0,-0.4375 -0.33724,-0.647136 -0.32812,-0.21875 -1.32161,-0.337239 l -0.57422,-0.07292 q -2.17839,-0.273438 -3.05339,-1.011719 -0.875,-0.738281 -0.875,-2.242187 0,-1.622396 1.11198,-2.40625 1.11198,-0.783854 3.40885,-0.783854 0.90235,0 1.89584,0.136719 0.99349,0.136718 2.16015,0.428385 z"
     style="font-style:normal;font-variant:normal;font-weight:bold;font-stretch:normal;font-size:18.66666603px;font-family:sans-serif;-inkscape-font-specification:'sans-serif, Bold';font-variant-ligatures:normal;font-variant-caps:normal;font-variant-numeric:normal;font-feature-settings:normal;text-align:start;writing-mode:lr-tb;text-anchor:start;fill:#ffffff;fill-opacity:1"
     id="path50"
     inkscape:connector-curvature="0" /><path
     d="m 187.20117,-86.983073 q -0.42839,-0.20052 -0.85677,-0.291666 -0.41927,-0.100261 -0.84766,-0.100261 -1.25781,0 -1.9414,0.811198 -0.67448,0.802083 -0.67448,2.30599 v 4.703125 h -3.26302 V -89.76302 h 3.26302 v 1.677083 q 0.6289,-1.002604 1.4401,-1.458333 0.82031,-0.464844 1.95964,-0.464844 0.16406,0 0.35547,0.01823 0.1914,0.0091 0.55599,0.05469 z"
     style="font-style:normal;font-variant:normal;font-weight:bold;font-stretch:normal;font-size:18.66666603px;font-family:sans-serif;-inkscape-font-specification:'sans-serif, Bold';font-variant-ligatures:normal;font-variant-caps:normal;font-variant-numeric:normal;font-feature-settings:normal;text-align:start;writing-mode:lr-tb;text-anchor:start;fill:#ffffff;fill-opacity:1"
     id="path52"
     inkscape:connector-curvature="0" /><path
     d="m 188.73242,-83.528646 v -6.234374 h 3.28125 v 1.020833 q 0,0.829427 -0.009,2.087239 -0.009,1.248698 -0.009,1.667969 0,1.230469 0.0638,1.777344 0.0638,0.53776 0.21875,0.783854 0.20052,0.31901 0.51953,0.492187 0.32813,0.173177 0.7474,0.173177 1.02083,0 1.60417,-0.783854 0.58333,-0.783854 0.58333,-2.178385 v -5.040364 h 3.26302 v 10.208333 h -3.26302 v -1.476563 q -0.73828,0.893229 -1.56771,1.321615 -0.82031,0.41927 -1.8138,0.41927 -1.76823,0 -2.69792,-1.084635 -0.92057,-1.084635 -0.92057,-3.153646 z"
     style="font-style:normal;font-variant:normal;font-weight:bold;font-stretch:normal;font-size:18.66666603px;font-family:sans-serif;-inkscape-font-specification:'sans-serif, Bold';font-variant-ligatures:normal;font-variant-caps:normal;font-variant-numeric:normal;font-feature-settings:normal;text-align:start;writing-mode:lr-tb;text-anchor:start;fill:#ffffff;fill-opacity:1"
     id="path54"
     inkscape:connector-curvature="0" /><path
     d="m 212.4121,-85.770833 v 6.216146 h -3.28125 v -1.011719 -3.727865 q 0,-1.339843 -0.0638,-1.841145 -0.0547,-0.501303 -0.20052,-0.738282 -0.19141,-0.31901 -0.51953,-0.492187 -0.32813,-0.182292 -0.7474,-0.182292 -1.02083,0 -1.60416,0.792969 -0.58334,0.783854 -0.58334,2.178385 v 5.022136 h -3.26302 v -14.182292 h 3.26302 v 5.46875 q 0.73829,-0.893229 1.56771,-1.3125 0.82943,-0.428385 1.83203,-0.428385 1.76823,0 2.67969,1.084635 0.92057,1.084636 0.92057,3.153646 z"
     style="font-style:normal;font-variant:normal;font-weight:bold;font-stretch:normal;font-size:18.66666603px;font-family:sans-serif;-inkscape-font-specification:'sans-serif, Bold';font-variant-ligatures:normal;font-variant-caps:normal;font-variant-numeric:normal;font-feature-settings:normal;text-align:start;writing-mode:lr-tb;text-anchor:start;fill:#ffffff;fill-opacity:1"
     id="path56"
     inkscape:connector-curvature="0" /><path
     d="m 225.64648,-84.686198 v 0.929688 h -7.6289 q 0.11849,1.148437 0.82943,1.722656 0.71093,0.574219 1.98697,0.574219 1.02995,0 2.10547,-0.300782 1.08464,-0.309895 2.22396,-0.929687 v 2.515625 q -1.15755,0.4375 -2.3151,0.65625 -1.15756,0.227864 -2.31511,0.227864 -2.77083,0 -4.31119,-1.403645 -1.53125,-1.412761 -1.53125,-3.955729 0,-2.497396 1.5039,-3.928386 1.51302,-1.430989 4.15625,-1.430989 2.40625,0 3.84636,1.449218 1.44921,1.449219 1.44921,3.873698 z m -3.35416,-1.084635 q 0,-0.929688 -0.54688,-1.494792 -0.53776,-0.574218 -1.41276,-0.574218 -0.94791,0 -1.54036,0.53776 -0.59245,0.528646 -0.73828,1.53125 z"
     style="font-style:normal;font-variant:normal;font-weight:bold;font-stretch:normal;font-size:18.66666603px;font-family:sans-serif;-inkscape-font-specification:'sans-serif, Bold';font-variant-ligatures:normal;font-variant-caps:normal;font-variant-numeric:normal;font-feature-settings:normal;text-align:start;writing-mode:lr-tb;text-anchor:start;fill:#ffffff;fill-opacity:1"
     id="path58"
     inkscape:connector-curvature="0" /></g></svg>