<?xml version="1.0" encoding="UTF-8" standalone="no"?>
<!-- Created with Inkscape (http://www.inkscape.org/) -->

<svg
   xmlns:dc="http://purl.org/dc/elements/1.1/"
   xmlns:cc="http://creativecommons.org/ns#"
   xmlns:rdf="http://www.w3.org/1999/02/22-rdf-syntax-ns#"
   xmlns:svg="http://www.w3.org/2000/svg"
   xmlns="http://www.w3.org/2000/svg"
   xmlns:sodipodi="http://sodipodi.sourceforge.net/DTD/sodipodi-0.dtd"
   xmlns:inkscape="http://www.inkscape.org/namespaces/inkscape"
   id="svg4155"
   version="1.1"
   inkscape:version="0.92.3 (2405546, 2018-03-11)"
   xml:space="preserve"
   width="166.66667"
   height="192.00133"
   viewBox="0 0 156.25 180.00125"
   sodipodi:docname="CfKA Hexagon 3d.svg"><metadata
     id="metadata4161"><rdf:RDF><cc:Work
         rdf:about=""><dc:format>image/svg+xml</dc:format><dc:type
           rdf:resource="http://purl.org/dc/dcmitype/StillImage" /><dc:title /></cc:Work></rdf:RDF></metadata><defs
     id="defs4159"><clipPath
       clipPathUnits="userSpaceOnUse"
       id="clipPath4177"><path
         d="M 30,21 H 168.001 V 177.001 H 30 Z"
         id="path4179"
         inkscape:connector-curvature="0" /></clipPath></defs><sodipodi:namedview
     pagecolor="#ffffff"
     bordercolor="#666666"
     borderopacity="1"
     objecttolerance="10"
     gridtolerance="10"
     guidetolerance="10"
     inkscape:pageopacity="0"
     inkscape:pageshadow="2"
     inkscape:window-width="1920"
     inkscape:window-height="1023"
     id="namedview4157"
     showgrid="false"
     fit-margin-top="0"
     fit-margin-left="0"
     fit-margin-right="0"
     fit-margin-bottom="0"
     inkscape:zoom="4.19302"
     inkscape:cx="57.63668"
     inkscape:cy="92.781117"
     inkscape:window-x="0"
     inkscape:window-y="0"
     inkscape:window-maximized="1"
     inkscape:current-layer="g4163"
     inkscape:snap-text-baseline="true" /><g
     id="g4163"
     inkscape:groupmode="layer"
     inkscape:label="CfKA Hexagon"
     transform="matrix(1.25,0,0,-1.25,-45.531,214.01612)"><g
   id="g4165"
   transform="translate(161.4248,63.2119)"
   inkscape:export-xdpi="299.99792"
   inkscape:export-ydpi="299.99792"><path
     d="M 0,0 -62.5,-36 -125,0 v 72.001 l 62.5,36 62.5,-36 z"
     style="fill:#0c0c0b;fill-opacity:1;fill-rule:nonzero;stroke:none"
     id="path4167"
     inkscape:connector-curvature="0" /></g><g
   id="g4169"
   transform="translate(157.4248,65.3789)"
   inkscape:export-xdpi="299.99792"
   inkscape:export-ydpi="299.99792"><path
     d="M 0,0 -58.5,-33.834 -117,0 V 67.667 L -58.5,101.5 0,67.667 Z"
     style="fill:none;stroke:#ffffff;stroke-width:3.75;stroke-linecap:butt;stroke-linejoin:miter;stroke-miterlimit:10;stroke-dasharray:none;stroke-opacity:1"
     id="path4171"
     inkscape:connector-curvature="0" /></g><g
   id="g4181"
   transform="translate(81.9546,67.4248)"
   inkscape:export-xdpi="299.99792"
   inkscape:export-ydpi="299.99792"><path
     d="m 0,0 v 0 c 0,2.762 2.239,5 5,5 h 25 c 2.761,0 5,-2.238 5,-5"
     style="fill:#0c0c0b;fill-opacity:1;fill-rule:nonzero;stroke:#ffffff;stroke-width:2;stroke-linecap:butt;stroke-linejoin:miter;stroke-miterlimit:10;stroke-dasharray:none;stroke-opacity:1"
     id="path4183"
     inkscape:connector-curvature="0" /></g><path
   d="M 128.43001,54.446151 H 69.419989 v 12.957698 h 59.010021 z"
   style="fill:#0c0c0b;fill-opacity:1;fill-rule:nonzero;stroke:#ffffff;stroke-width:1.6155349;stroke-linecap:butt;stroke-linejoin:miter;stroke-miterlimit:10;stroke-dasharray:none;stroke-opacity:1"
   id="path4185"
   inkscape:connector-curvature="0"
   inkscape:export-xdpi="299.99792"
   inkscape:export-ydpi="299.99792" /><g
   id="g4221"
   transform="translate(72.5171,118.9873)"
   inkscape:export-xdpi="299.99792"
   inkscape:export-ydpi="299.99792"><path
     d="m 0,0 -13,2 7,-14.615 -13.125,-7.115 12.75,-7.52 L -13,-42 0,-40"
     style="fill:none;stroke:#ffffff;stroke-width:2;stroke-linecap:butt;stroke-linejoin:miter;stroke-miterlimit:10;stroke-dasharray:none;stroke-opacity:1"
     id="path4223"
     inkscape:connector-curvature="0" /></g><g
   id="g4225"
   transform="translate(153.4248,108.4248)"
   inkscape:export-xdpi="299.99792"
   inkscape:export-ydpi="299.99792"><path
     d="m 0,0 -52.155,-14 c -1.831,0 -3.845,1.771 -3.845,3.604 v 0.369 c 0,1.83 2.014,3.027 3.845,3.027 L 0,7"
     style="fill:#0c0c0b;fill-opacity:1;fill-rule:nonzero;stroke:#ffffff;stroke-width:2;stroke-linecap:butt;stroke-linejoin:miter;stroke-miterlimit:10;stroke-dasharray:none;stroke-opacity:1"
     id="path4227"
     inkscape:connector-curvature="0" /></g><path
   d="m 108.425,87.425 h -19 v 24 h 19 z"
   style="fill:#0c0c0b;fill-opacity:1;fill-rule:nonzero;stroke:#ffffff;stroke-width:2;stroke-linecap:butt;stroke-linejoin:miter;stroke-miterlimit:10;stroke-dasharray:none;stroke-opacity:1"
   id="path4229"
   inkscape:connector-curvature="0"
   inkscape:export-xdpi="299.99792"
   inkscape:export-ydpi="299.99792" /><g
   id="g4231"
   transform="translate(111.4248,114.9248)"
   inkscape:export-xdpi="299.99792"
   inkscape:export-ydpi="299.99792"><path
     d="m 0,0 c 0,-1.932 -1.567,-3.5 -3.5,-3.5 h -18 c -1.933,0 -3.5,1.568 -3.5,3.5 0,1.934 1.567,3.5 3.5,3.5 h 18 C -1.567,3.5 0,1.934 0,0"
     style="fill:#0c0c0b;fill-opacity:1;fill-rule:nonzero;stroke:none"
     id="path4233"
     inkscape:connector-curvature="0" /></g><g
   id="g4235"
   transform="translate(111.4248,114.9248)"
   inkscape:export-xdpi="299.99792"
   inkscape:export-ydpi="299.99792"><path
     d="m 0,0 c 0,-1.932 -1.567,-3.5 -3.5,-3.5 h -18 c -1.933,0 -3.5,1.568 -3.5,3.5 0,1.934 1.567,3.5 3.5,3.5 h 18 C -1.567,3.5 0,1.934 0,0 Z"
     style="fill:none;stroke:#ffffff;stroke-width:2;stroke-linecap:butt;stroke-linejoin:miter;stroke-miterlimit:10;stroke-dasharray:none;stroke-opacity:1"
     id="path4237"
     inkscape:connector-curvature="0" /></g><g
   id="g4239"
   transform="translate(111.4248,83.9248)"
   inkscape:export-xdpi="299.99792"
   inkscape:export-ydpi="299.99792"><path
     d="m 0,0 c 0,-1.932 -1.567,-3.5 -3.5,-3.5 h -18 c -1.933,0 -3.5,1.568 -3.5,3.5 0,1.934 1.567,3.5 3.5,3.5 h 18 C -1.567,3.5 0,1.934 0,0"
     style="fill:#0c0c0b;fill-opacity:1;fill-rule:nonzero;stroke:none"
     id="path4241"
     inkscape:connector-curvature="0" /></g><g
   id="g4243"
   transform="translate(111.4248,83.9248)"
   inkscape:export-xdpi="299.99792"
   inkscape:export-ydpi="299.99792"><path
     d="m 0,0 c 0,-1.932 -1.567,-3.5 -3.5,-3.5 h -18 c -1.933,0 -3.5,1.568 -3.5,3.5 0,1.934 1.567,3.5 3.5,3.5 h 18 C -1.567,3.5 0,1.934 0,0 Z"
     style="fill:none;stroke:#ffffff;stroke-width:2;stroke-linecap:butt;stroke-linejoin:miter;stroke-miterlimit:10;stroke-dasharray:none;stroke-opacity:1"
     id="path4245"
     inkscape:connector-curvature="0" /></g><g
   id="g4247"
   transform="translate(89.4248,91.4248)"
   inkscape:export-xdpi="299.99792"
   inkscape:export-ydpi="299.99792"><path
     d="M 0,0 H 19"
     style="fill:none;stroke:#ffffff;stroke-width:2;stroke-linecap:butt;stroke-linejoin:miter;stroke-miterlimit:10;stroke-dasharray:none;stroke-opacity:1"
     id="path4249"
     inkscape:connector-curvature="0" /></g><g
   id="g4251"
   transform="translate(89.4248,107.4248)"
   inkscape:export-xdpi="299.99792"
   inkscape:export-ydpi="299.99792"><path
     d="M 0,0 H 19"
     style="fill:none;stroke:#ffffff;stroke-width:2;stroke-linecap:butt;stroke-linejoin:miter;stroke-miterlimit:10;stroke-dasharray:none;stroke-opacity:1"
     id="path4253"
     inkscape:connector-curvature="0" /></g><g
   id="g4857"
   transform="matrix(1.5418963,0,0,1.4661964,-53.72699,-64.466212)"
   inkscape:export-xdpi="299.99792"
   inkscape:export-ydpi="299.99792"><g
     transform="translate(93.6903,146.2076)"
     id="g4271"><path
       inkscape:connector-curvature="0"
       id="path4273"
       style="fill:#ffffff;fill-opacity:1;fill-rule:nonzero;stroke:none"
       d="m 0,0 v -0.149 -9.418 h 0.788 0.22 0.187 V 0 Z" /></g><g
     transform="translate(98.4317,135.7436)"
     id="g4275"><path
       inkscape:connector-curvature="0"
       id="path4277"
       style="fill:#ffffff;fill-opacity:1;fill-rule:nonzero;stroke:none"
       d="M 0,0 C 0.084,0 0.191,0.075 0.191,0.155 V 11.361 C 0.191,11.442 0.084,11.51 0,11.51 h -3.734 c -0.081,0 -0.111,-0.032 -0.111,-0.075 v -0.223 -0.748 c 0,-0.081 0.03,-0.151 0.111,-0.151 h 2.539 c 0.084,0 0.19,-0.065 0.19,-0.146 V 1.35 c 0,-0.081 -0.106,-0.153 -0.19,-0.153 h -2.539 c -0.081,0 -0.111,-0.028 -0.111,-0.07 V 0.903 0.155 C -3.845,0.075 -3.815,0 -3.734,0 Z" /></g><g
     transform="translate(100.117,146.2076)"
     id="g4279"><path
       inkscape:connector-curvature="0"
       id="path4281"
       style="fill:#ffffff;fill-opacity:1;fill-rule:nonzero;stroke:none"
       d="M 0,0 V -0.149 -9.567 H 1.005 1.198 V 0 Z" /></g><g
     transform="translate(101.1646,135.7493)"
     id="g4283"><path
       inkscape:connector-curvature="0"
       id="path4285"
       style="fill:#ffffff;fill-opacity:1;fill-rule:nonzero;stroke:none"
       d="m 0,0 v 1.197 c 1.645,0 2.791,2.043 2.791,4.557 0,2.511 -1.146,4.556 -2.791,4.556 v 1.194 c 2.243,0 3.985,-2.58 3.985,-5.75 C 3.985,2.581 2.243,0 0,0" /></g><g
     style="stroke-width:0.15000001;stroke-miterlimit:10;stroke-dasharray:none"
     transform="translate(88.7584,139.4259)"
     id="g4287"><path
       inkscape:connector-curvature="0"
       id="path4289"
       style="fill:#ffffff;fill-opacity:1;fill-rule:nonzero;stroke:none;stroke-width:0.15000001;stroke-miterlimit:10;stroke-dasharray:none"
       d="m 0,0 v -1.647 -0.532 c 0,-0.894 0.572,-1.503 1.475,-1.503 h 0.254 0.733 0.862 c 0.043,0 0.113,0.075 0.113,0.155 v 0.898 c 0,0.08 -0.104,0.142 -0.188,0.142 H 2.392 1.953 1.683 c -0.387,0 -0.488,0.166 -0.488,0.608 v 0.261 1.439 0.878 c 0,0.9 -0.366,1.232 -0.814,1.396 0.448,0.161 0.814,0.494 0.814,1.393 v 0.624 1.581 0.374 c 0,0.434 0.086,0.564 0.488,0.564 H 2.02 2.447 3.324 c 0.043,0 0.113,0.07 0.113,0.151 v 0.897 c 0,0.081 -0.104,0.149 -0.188,0.149 H 2.531 1.856 1.475 C 0.572,7.828 0,7.241 0,6.367 V 5.898 3.944 c 0,0 -0.031,-0.45 -0.052,-0.602 -0.057,-0.405 -0.551,-0.75 -0.86,-0.746 H -1.38 c -0.083,0 -0.115,-0.063 -0.115,-0.146 V 1.553 c 0,-0.081 0.032,-0.154 0.115,-0.154 h 0.427 C -0.56,1.405 -0.066,1.077 -0.03,0.584 -0.018,0.442 0,0 0,0" /></g><g
     transform="translate(94.6975,147.2538)"
     id="g4291"><path
       inkscape:connector-curvature="0"
       id="path4293"
       style="fill:#ffffff;fill-opacity:1;fill-rule:nonzero;stroke:none"
       d="m 0,0 h -0.424 -0.47 c -0.084,0 -0.114,-0.068 -0.114,-0.149 v -0.277 -0.62 -0.151 H -0.894 0 0.188 V -1.046 -0.149 0 Z" /></g><g
     transform="translate(93.6903,136.7969)"
     id="g4295"><path
       inkscape:connector-curvature="0"
       id="path4297"
       style="fill:#ffffff;fill-opacity:1;fill-rule:nonzero;stroke:none"
       d="M 0,0 V -0.424 -0.897 C 0,-0.978 0.03,-1.053 0.112,-1.053 H 0.387 1.008 1.195 V -0.897 0 0.143 H 1.008 0.112 0 Z" /></g><g
     transform="translate(101.1213,147.2538)"
     id="g4299"><path
       inkscape:connector-curvature="0"
       id="path4301"
       style="fill:#ffffff;fill-opacity:1;fill-rule:nonzero;stroke:none"
       d="m 0,0 h -0.421 -0.473 c -0.084,0 -0.111,-0.068 -0.111,-0.149 v -0.277 -0.62 -0.151 H -0.894 0 0.194 V -1.046 -0.149 0 Z" /></g><g
     transform="translate(100.117,136.7969)"
     id="g4303"><path
       inkscape:connector-curvature="0"
       id="path4305"
       style="fill:#ffffff;fill-opacity:1;fill-rule:nonzero;stroke:none"
       d="M 0,0 V -0.424 -0.897 C 0,-0.978 0.027,-1.053 0.109,-1.053 H 0.384 1.005 1.198 V -0.897 0 0.143 H 1.005 0.109 0 Z" /></g><g
     transform="translate(107.5914,139.4259)"
     id="g4307"><path
       inkscape:connector-curvature="0"
       id="path4309"
       style="fill:#ffffff;fill-opacity:1;fill-rule:nonzero;stroke:none"
       d="M 0,0 V -1.647 -2.179 C 0,-3.073 0.563,-3.682 1.466,-3.682 H 1.72 2.453 3.316 c 0.04,0 0.121,0.075 0.121,0.155 v 0.898 c 0,0.08 -0.113,0.142 -0.197,0.142 H 2.383 1.944 1.674 c -0.387,0 -0.479,0.166 -0.479,0.608 v 0.261 1.439 0.878 c 0,0.288 -0.084,0.551 -0.15,0.7 H -0.96 C -0.409,1.25 -0.176,1.053 -0.061,0.575 -0.006,0.335 0,0 0,0" /></g><g
     transform="translate(107.5077,142.7677)"
     id="g4311"><path
       inkscape:connector-curvature="0"
       id="path4313"
       style="fill:#ffffff;fill-opacity:1;fill-rule:nonzero;stroke:none"
       d="m 0,0 c -0.115,-0.392 -0.375,-0.595 -0.836,-0.746 h 1.884 c 0.115,0.298 0.23,0.498 0.23,0.895 V 0.77 2.351 2.726 c 0,0.434 0.078,0.564 0.479,0.564 H 2.095 2.522 3.4 c 0.04,0 0.121,0.068 0.121,0.15 v 0.898 c 0,0.08 -0.112,0.148 -0.197,0.148 H 2.606 1.931 1.55 C 0.646,4.486 0.084,3.901 0.084,3.025 V 2.556 0.601 C 0.084,0.601 0.058,0.197 0,0" /></g><g
     transform="translate(107.7991,141.4143)"
     id="g4315"><path
       inkscape:connector-curvature="0"
       id="path4317"
       style="fill:#ffffff;fill-opacity:1;fill-rule:nonzero;stroke:none"
       d="m 0,0 c 0.303,-0.109 0.632,-0.288 0.836,-0.588 h 2.197 c 0.083,0 0.197,0.071 0.197,0.152 v 0.897 c 0,0.083 -0.114,0.148 -0.197,0.148 H 0.757 C 0.606,0.309 0.248,0.092 0,0" /></g><g
     transform="translate(106.2004,142.0217)"
     id="g4319"><path
       inkscape:connector-curvature="0"
       id="path4321"
       style="fill:#ffffff;fill-opacity:1;fill-rule:nonzero;stroke:none"
       d="m 0,0 c -0.081,0 -0.103,-0.065 -0.103,-0.146 v -0.897 c 0,-0.081 0.022,-0.154 0.103,-0.154 H 0.43 2.435 C 2.301,-0.895 1.968,-0.691 1.729,-0.598 1.977,-0.507 2.204,-0.298 2.355,0 H 0.47 Z" /></g></g><text
   xml:space="preserve"
   style="font-style:normal;font-variant:normal;font-weight:bold;font-stretch:normal;font-size:10px;line-height:1.25;font-family:sans-serif;-inkscape-font-specification:'sans-serif, Bold';font-variant-ligatures:normal;font-variant-caps:normal;font-variant-numeric:normal;font-feature-settings:normal;text-align:start;letter-spacing:0px;word-spacing:0px;writing-mode:lr-tb;text-anchor:start;fill:#ffffff;fill-opacity:1;stroke:none;stroke-width:0.75"
   x="71.633652"
   y="-57.908264"
   id="text4777"
   transform="scale(1,-1)"
   inkscape:export-xdpi="299.99792"
   inkscape:export-ydpi="299.99792"><tspan
     sodipodi:role="line"
     id="tspan4779"
     x="71.633652"
     y="-57.908264">Karlsruhe</tspan></text>

<text
   xml:space="preserve"
   style="font-style:normal;font-variant:normal;font-weight:bold;font-stretch:normal;font-size:8px;line-height:1.25;font-family:sans-serif;-inkscape-font-specification:'sans-serif, Bold';font-variant-ligatures:normal;font-variant-caps:normal;font-variant-numeric:normal;font-feature-settings:normal;text-align:start;letter-spacing:0px;word-spacing:0px;writing-mode:lr-tb;text-anchor:start;fill:#ffffff;fill-opacity:1;stroke:none;stroke-width:0.75"
   x="91.790909"
   y="-125.11044"
   id="text4777-3-4"
   transform="scale(1,-1)"
   inkscape:export-xdpi="299.99792"
   inkscape:export-ydpi="299.99792"><tspan
     sodipodi:role="line"
     id="tspan4829"
     x="91.790909"
     y="-125.11044">for</tspan></text>

</g></svg>